<svg width="784" height="222" viewBox="0 0 784 222" fill="none" xmlns="http://www.w3.org/2000/svg">
<path d="M99.8 116.377C97.5 96.3769 84.9 86.5768 61.6 86.5768C41.1 86.5768 28 94.8768 28 107.477C28 118.077 36 124.377 55.6 128.577L80.5 133.677C98.7 137.577 107.8 141.277 115.2 147.577C123.2 154.277 127.6 164.077 127.6 175.377C127.6 202.777 104.2 219.677 66.9 219.677C27.1 219.677 3.2 200.577 0 165.777H22.8C25.1 188.777 41.2 201.577 67.6 201.577C89.7 201.577 105.3 191.377 105.3 176.777C105.3 165.877 97 158.777 80.9 155.077L46.5 147.377C18.5 141.077 5.8 129.377 5.8 109.777C5.8 84.3769 28.1 68.2769 63.3 68.2769C98.5 68.2769 117.3 83.6769 122.1 116.277H99.8V116.377Z" fill="#77B55A"/>
<path d="M178.2 216.477H156.4V71.5771H178.2V216.477Z" fill="#77B55A"/>
<path d="M269.4 216.477H247.6V89.5771H199.8V71.5771H317.2V89.5771H269.4V216.477Z" fill="#77B55A"/>
<path d="M439.7 116.977C435.1 97.8768 419.7 86.3768 398.6 86.3768C369.2 86.3768 349.9 108.977 349.9 143.077C349.9 178.077 369.2 201.677 397.9 201.677C421.8 201.677 438.4 186.477 441.8 161.277H463.9C462.1 175.577 458.6 184.777 450.8 194.977C438.2 211.477 420.5 219.777 397.5 219.777C374.7 219.777 356.6 211.477 343.7 194.977C332.7 180.877 326.9 163.277 326.9 143.477C326.9 99.3768 356.5 68.2769 398.6 68.2769C431.2 68.2769 454.4 85.6768 461.1 114.977L439.7 116.977Z" fill="#77B55A"/>
<path d="M761 216.477L698.3 125.077C690.7 113.777 686.1 106.577 682.4 100.077C682.9 106.577 683.1 120.277 683.1 127.477V216.577H662.4V71.5771H684.7L744.9 159.777C750.6 168.077 758.5 181.077 763.1 189.777C762.6 181.777 762.4 172.877 762.4 162.577V72.4772H783.1V216.477H761Z" fill="#77B55A"/>
<path d="M587.9 6.87697C600.8 -3.02303 616.2 0.676977 616.2 0.676977C616.2 0.676977 613.6 18.977 600.7 28.877C587.8 38.777 569.3 36.377 569.3 36.377C569.3 36.377 573.3 30.377 577.3 22.477C579.7 17.877 583.1 10.477 587.9 6.87697Z" fill="#77B55A"/>
<path d="M556.8 21.7769C550.8 17.1769 543.6 18.8769 543.6 18.8769C543.6 18.8769 544.8 27.4769 550.8 32.0769C556.8 36.6769 565.4 35.5769 565.4 35.5769C565.4 35.5769 563.5 32.7769 561.7 29.0769C560.6 26.8769 559 23.4769 556.8 21.7769Z" fill="#77B55A"/>
<path d="M558.3 65.4768C560.1 65.4768 561.8 65.5768 563.6 65.6768C562 56.2768 562.3 46.5768 567.2 38.1768C558.7 44.9768 554.6 55.3768 552.5 65.7768C554.4 65.5768 556.3 65.4768 558.3 65.4768Z" fill="#77B55A"/>
<path d="M558.3 68.5771C515.9 68.5771 481.5 102.877 481.5 145.077C481.5 187.377 515.9 221.577 558.3 221.577C600.7 221.577 635.1 187.277 635.1 145.077C635 102.877 600.7 68.5771 558.3 68.5771ZM589.6 176.377L558.2 154.877L526.8 176.377L548.4 145.077L526.8 113.777L558.2 135.277L589.6 113.777L568 145.077L589.6 176.377Z" fill="#77B55A"/>
</svg>
